<svg width="88" height="22" viewBox="0 0 88 22" fill="none" xmlns="http://www.w3.org/2000/svg">
<path d="M0.426406 21.0382C0.142106 21.0382 -4.41746e-05 20.9434 -4.41746e-05 20.7539C-4.41746e-05 20.5644 0.132629 20.4412 0.397976 20.3843L0.824426 20.299C1.20349 20.2232 1.48779 20.0432 1.67733 19.7589C1.86686 19.4556 2.02796 19.0386 2.16064 18.5079L6.56729 0.739186C6.60519 0.549653 6.66205 0.426457 6.73787 0.369596C6.83263 0.312737 6.91792 0.284307 6.99374 0.284307C7.0885 0.284307 7.17379 0.312737 7.24961 0.369596C7.34437 0.426457 7.41071 0.549653 7.44862 0.739186L11.9406 18.7638C12.0732 19.2945 12.2249 19.6641 12.3954 19.8726C12.566 20.0811 12.8314 20.2232 13.1915 20.299L13.6179 20.3843C13.8833 20.4412 14.0159 20.5644 14.0159 20.7539C14.0159 20.9434 13.8738 21.0382 13.5895 21.0382H8.72797C8.46262 21.0382 8.32995 20.934 8.32995 20.7255C8.32995 20.517 8.49105 20.4033 8.81326 20.3843L9.35343 20.3275C9.67563 20.2896 9.87464 20.1853 9.95046 20.0147C10.0452 19.8441 10.0452 19.5504 9.95046 19.1334L8.87012 14.7267C8.7564 14.234 8.44367 13.9876 7.93193 13.9876H4.94678C4.45399 13.9876 4.14126 14.234 4.00859 14.7267L3.04197 18.5364C2.75767 19.6167 3.04197 20.2137 3.89487 20.3275L4.32132 20.3843C4.64352 20.4412 4.80463 20.5549 4.80463 20.7255C4.80463 20.934 4.67195 21.0382 4.40661 21.0382H0.426406ZM4.86149 13.1347H7.98879C8.29204 13.1347 8.41524 12.9736 8.35838 12.6514L6.53886 5.03212H6.39671L4.4919 12.6514C4.43504 12.9736 4.55823 13.1347 4.86149 13.1347ZM17.8602 21.2941C17.3864 21.2941 16.9315 21.1898 16.4956 20.9813C16.0596 20.7729 15.6995 20.4412 15.4152 19.9863C15.1309 19.5314 14.9888 18.9249 14.9888 18.1668V8.27314C14.9888 7.93198 14.9319 7.69506 14.8182 7.56239C14.7234 7.42971 14.5434 7.3539 14.278 7.33495L13.7947 7.27809C13.4725 7.24018 13.3114 7.11698 13.3114 6.9085C13.3114 6.6621 13.4915 6.53891 13.8516 6.53891H16.4956C16.7799 6.53891 16.922 6.68106 16.922 6.96536V17.5697C16.922 18.4416 17.0831 19.0671 17.4053 19.4461C17.7465 19.8062 18.2109 19.9863 18.7984 19.9863C19.386 19.9863 19.9072 19.8252 20.3621 19.503C20.8169 19.1618 21.177 18.7164 21.4424 18.1668C21.7267 17.5982 21.8688 16.9822 21.8688 16.3188V8.27314C21.8688 7.93198 21.812 7.69506 21.6983 7.56239C21.6035 7.42971 21.4234 7.3539 21.1581 7.33495L20.6748 7.27809C20.3526 7.24018 20.1915 7.11698 20.1915 6.9085C20.1915 6.6621 20.3715 6.53891 20.7316 6.53891H23.3756C23.6599 6.53891 23.8021 6.68106 23.8021 6.96536V17.9962C23.8021 18.3374 23.8495 18.5743 23.9442 18.7069C24.058 18.8207 24.2475 18.8965 24.5128 18.9344L25.1099 19.0197C25.3563 19.0386 25.4795 19.1334 25.4795 19.304C25.4795 19.4746 25.3278 19.5883 25.0246 19.6451C24.437 19.721 23.9632 19.8726 23.6031 20.1C23.2619 20.3275 22.9587 20.6023 22.6933 20.9245C22.5227 21.0951 22.3806 21.1804 22.2669 21.1804C22.0963 21.1804 22.011 21.0666 22.011 20.8392V19.5314C22.011 19.3798 21.9541 19.2945 21.8404 19.2755C21.7456 19.2376 21.6414 19.2755 21.5277 19.3893C20.8264 20.0905 20.201 20.5833 19.6513 20.8676C19.1206 21.1519 18.5236 21.2941 17.8602 21.2941ZM30.0027 8.35843C30.7798 7.03169 31.718 6.36833 32.8173 6.36833C33.4427 6.36833 33.9071 6.55786 34.2104 6.93693C34.5136 7.29704 34.6652 7.70454 34.6652 8.15942C34.6652 8.51953 34.5705 8.81331 34.3809 9.04075C34.2104 9.26819 33.9355 9.38191 33.5565 9.38191C33.2532 9.38191 33.0258 9.31557 32.8741 9.1829C32.7415 9.03127 32.6277 8.86069 32.533 8.67116C32.4572 8.48162 32.3624 8.32052 32.2487 8.18785C32.135 8.03622 31.9454 7.96041 31.6801 7.96041C31.3389 7.96041 31.0167 8.16889 30.7135 8.58587C30.4102 8.98389 30.1543 9.52406 29.9459 10.2064C29.7563 10.8887 29.6616 11.6658 29.6616 12.5376V19.1334C29.6616 19.5314 29.7184 19.8157 29.8321 19.9863C29.9648 20.1569 30.2302 20.2611 30.6282 20.299L31.3958 20.3843C31.6043 20.4222 31.7085 20.5265 31.7085 20.697C31.7085 20.9245 31.5664 21.0382 31.2821 21.0382H26.4774C26.1931 21.0382 26.0509 20.934 26.0509 20.7255C26.0509 20.5549 26.1741 20.4412 26.4205 20.3843L26.7617 20.3275C27.1597 20.2516 27.4156 20.1379 27.5293 19.9863C27.662 19.8157 27.7283 19.5314 27.7283 19.1334V9.58092C27.7283 9.23976 27.6715 9.01232 27.5577 8.8986C27.463 8.76592 27.2829 8.68063 27.0176 8.64273L26.4205 8.55744C26.1741 8.53848 26.0509 8.43424 26.0509 8.24471C26.0509 8.09308 26.2026 7.98884 26.5058 7.93198C27.0934 7.83721 27.5388 7.68558 27.842 7.4771C28.1642 7.26861 28.4959 7.01274 28.8371 6.70949C29.0077 6.53891 29.1498 6.45362 29.2635 6.45362C29.4341 6.45362 29.5194 6.56734 29.5194 6.79478V8.33C29.5194 8.46267 29.5763 8.54796 29.69 8.58587C29.8037 8.60482 29.9079 8.52901 30.0027 8.35843ZM37.303 21.2941C36.507 21.2941 35.8531 21.0477 35.3413 20.5549C34.8296 20.0432 34.5737 19.3703 34.5737 18.5364C34.5737 17.7214 34.8296 16.9538 35.3413 16.2335C35.8531 15.4944 36.5543 14.831 37.4452 14.2434C38.336 13.6559 39.35 13.1821 40.4872 12.8219C40.7336 12.7461 40.8568 12.585 40.8568 12.3386V9.7515C40.8568 8.84174 40.7146 8.19732 40.4303 7.81826C40.146 7.42024 39.7575 7.22123 39.2647 7.22123C38.7908 7.22123 38.3549 7.43919 37.9569 7.87512C37.5778 8.29209 37.303 9.00284 37.1324 10.0074C37.0377 10.6139 36.8292 11.0593 36.507 11.3436C36.2037 11.6089 35.891 11.7416 35.5688 11.7416C35.0381 11.7416 34.7727 11.4763 34.7727 10.9456C34.7727 10.3959 34.9244 9.85574 35.2276 9.32505C35.5498 8.7754 35.9668 8.28261 36.4785 7.84669C36.9903 7.39181 37.5494 7.03169 38.1559 6.76635C38.7624 6.501 39.3689 6.36833 39.9754 6.36833C41.8518 6.36833 42.79 7.45814 42.79 9.63778V18.3374C42.79 19.1334 42.989 19.5314 43.387 19.5314C43.6334 19.5314 43.8609 19.3703 44.0693 19.0481C44.2778 18.7069 44.3821 18.1383 44.3821 17.3423C44.3821 17.0391 44.5053 16.8874 44.7517 16.8874C44.9791 16.8874 45.0928 17.0485 45.0928 17.3707C45.0928 18.7543 44.8464 19.7589 44.3536 20.3843C43.8798 20.9908 43.3396 21.2941 42.7331 21.2941C42.2783 21.2941 41.9181 21.114 41.6528 20.7539C41.3874 20.3748 41.2074 19.9294 41.1126 19.4177C41.0937 19.2282 41.0084 19.1334 40.8568 19.1334C40.7241 19.1144 40.5914 19.1997 40.4587 19.3893C40.0039 20.0147 39.5395 20.4886 39.0657 20.8108C38.5918 21.133 38.0043 21.2941 37.303 21.2941ZM38.0706 19.9863C38.5634 19.9863 39.0183 19.8157 39.4353 19.4746C39.8522 19.1144 40.1934 18.6406 40.4587 18.0531C40.7241 17.4655 40.8568 16.8021 40.8568 16.063V13.9876C40.8568 13.6275 40.6577 13.5232 40.2597 13.6748C39.1036 14.0918 38.2033 14.6699 37.5589 15.4091C36.9334 16.1293 36.6207 17.0011 36.6207 18.0246C36.6207 19.3324 37.104 19.9863 38.0706 19.9863ZM50.1936 21.2941C49.8145 21.2941 49.388 21.2562 48.9142 21.1804C48.4593 21.1045 48.0234 21.0098 47.6064 20.8961C47.2084 20.7823 46.8957 20.6591 46.6682 20.5265C46.5356 20.4507 46.4313 20.3748 46.3555 20.299C46.2987 20.2043 46.2702 20.0526 46.2702 19.8441L46.1281 15.3806C46.1281 15.0016 46.2513 14.812 46.4977 14.812C46.7062 14.812 46.8483 14.9826 46.9241 15.3238L47.18 16.4041C47.8244 19.1144 49.0279 20.4696 50.7906 20.4696C51.7383 20.4696 52.4869 20.1569 53.0366 19.5314C53.6052 18.887 53.8895 17.9867 53.8895 16.8306C53.8895 15.7123 53.5957 14.6699 53.0081 13.7033C52.4395 12.7366 51.5203 11.7795 50.2504 10.8318C48.8479 9.82731 47.8244 8.86069 47.18 7.93198C46.5356 6.98431 46.2134 5.97978 46.2134 4.9184C46.2134 3.51585 46.6967 2.3976 47.6633 1.56366C48.6489 0.710757 49.8998 0.284307 51.4161 0.284307C51.9847 0.284307 52.5343 0.350644 53.065 0.483316C53.5957 0.61599 54.0316 0.805524 54.3728 1.05192C54.4865 1.12773 54.5718 1.21302 54.6286 1.30779C54.7045 1.40255 54.7424 1.52575 54.7424 1.67738L54.8277 5.97031C54.8277 6.29251 54.7045 6.45362 54.4581 6.45362C54.2875 6.45362 54.1643 6.32094 54.0885 6.0556L53.8895 5.34485C53.4725 3.88544 53.0366 2.82405 52.5817 2.16069C52.1458 1.47837 51.5108 1.13721 50.6769 1.13721C49.8619 1.13721 49.208 1.40255 48.7152 1.93325C48.2414 2.46394 48.0045 3.2126 48.0045 4.17922C48.0045 4.99421 48.2698 5.7713 48.8005 6.51048C49.3312 7.24966 50.2599 8.14994 51.5866 9.21133C53.0081 10.3675 54.0411 11.4857 54.6855 12.5661C55.3489 13.6275 55.6806 14.7647 55.6806 15.9777C55.6806 17.0391 55.4436 17.9678 54.9698 18.7638C54.496 19.5598 53.8421 20.1853 53.0081 20.6402C52.1931 21.0761 51.255 21.2941 50.1936 21.2941ZM57.0232 21.0382C56.7958 21.0382 56.682 20.934 56.682 20.7255C56.682 20.5359 56.7863 20.4222 56.9948 20.3843L57.3928 20.3275C57.7908 20.2706 58.0467 20.1569 58.1604 19.9863C58.2931 19.8157 58.3594 19.5314 58.3594 19.1334V2.84301C58.3594 2.50185 58.3026 2.27441 58.1888 2.16069C58.0941 2.02801 57.914 1.94272 57.6487 1.90482L57.0516 1.81953C56.8431 1.78162 56.7389 1.6679 56.7389 1.47837C56.7389 1.28883 56.8431 1.17511 57.0516 1.13721C57.5823 1.02349 58.0277 0.890813 58.3878 0.739186C58.748 0.587559 59.0512 0.435933 59.2976 0.284307C59.6009 0.0947741 59.8283 7.51085e-06 59.9799 7.51085e-06C60.1884 7.51085e-06 60.2927 0.151634 60.2927 0.454887V12.3671C60.2927 12.5566 60.3685 12.6798 60.5201 12.7366C60.6907 12.7746 60.8518 12.7082 61.0034 12.5376L64.3297 8.95546C64.7277 8.51953 64.8888 8.15942 64.813 7.87512C64.7562 7.57186 64.5382 7.38233 64.1591 7.30652L63.5052 7.1928C63.2589 7.13594 63.1357 7.01274 63.1357 6.82321C63.1357 6.63367 63.2683 6.53891 63.5337 6.53891H68.4236C68.689 6.53891 68.8217 6.64315 68.8217 6.85164C68.8217 7.06012 68.6985 7.17384 68.4521 7.1928L68.1962 7.22123C67.7603 7.25913 67.3243 7.42971 66.8884 7.73297C66.4525 8.01727 65.9313 8.47215 65.3248 9.09761L63.5621 10.974C63.1641 11.4099 63.0693 11.8364 63.2778 12.2533L66.86 19.1334C67.0685 19.5125 67.2959 19.7873 67.5423 19.9579C67.7887 20.1284 68.092 20.2516 68.4521 20.3275L68.7364 20.3843C68.9638 20.4412 69.0775 20.5549 69.0775 20.7255C69.0775 20.934 68.9449 21.0382 68.6795 21.0382H63.7327C63.4673 21.0382 63.3347 20.934 63.3347 20.7255C63.3347 20.5359 63.4579 20.4222 63.7043 20.3843L64.1876 20.3275C64.9078 20.2327 65.0594 19.7683 64.6424 18.9344L61.9416 13.6748C61.8468 13.4853 61.7047 13.3811 61.5151 13.3621C61.3446 13.3432 61.1835 13.4095 61.0318 13.5611L60.7191 13.8738C60.5485 14.0444 60.4348 14.215 60.3779 14.3856C60.3211 14.5562 60.2927 14.7457 60.2927 14.9542V19.1334C60.2927 19.5314 60.3495 19.8157 60.4632 19.9863C60.5959 20.1569 60.8613 20.2611 61.2593 20.299L62.0269 20.3843C62.2354 20.4222 62.3396 20.5359 62.3396 20.7255C62.3396 20.934 62.2259 21.0382 61.9985 21.0382H57.0232ZM71.5394 3.83806C71.1414 3.83806 70.8002 3.69591 70.5159 3.41161C70.2506 3.12731 70.1179 2.76719 70.1179 2.33127C70.1179 1.89534 70.2506 1.5447 70.5159 1.27936C70.8002 0.995057 71.1414 0.852907 71.5394 0.852907C71.9374 0.852907 72.2691 0.995057 72.5344 1.27936C72.7998 1.5447 72.9325 1.89534 72.9325 2.33127C72.9325 2.76719 72.7998 3.12731 72.5344 3.41161C72.2691 3.69591 71.9374 3.83806 71.5394 3.83806ZM69.1513 21.0382C68.867 21.0382 68.7248 20.934 68.7248 20.7255C68.7248 20.5549 68.848 20.4412 69.0944 20.3843L69.4356 20.3275C69.9094 20.2516 70.2127 20.1379 70.3453 19.9863C70.478 19.8157 70.5443 19.5314 70.5443 19.1334V9.58092C70.5443 9.23976 70.4875 9.01232 70.3738 8.8986C70.279 8.76592 70.0989 8.68063 69.8336 8.64273L69.2366 8.55744C68.9902 8.53848 68.867 8.43424 68.867 8.24471C68.867 8.09308 69.0186 7.98884 69.3219 7.93198C69.9094 7.83721 70.3832 7.68558 70.7434 7.4771C71.1035 7.26861 71.4541 7.01274 71.7953 6.70949C71.9658 6.53891 72.108 6.45362 72.2217 6.45362C72.3923 6.45362 72.4776 6.56734 72.4776 6.79478V19.1334C72.4776 19.5314 72.5344 19.8157 72.6482 19.9863C72.7619 20.1569 72.9798 20.2611 73.3021 20.299L74.0128 20.3843C74.2213 20.4222 74.3255 20.5265 74.3255 20.697C74.3255 20.9245 74.1834 21.0382 73.8991 21.0382H69.1513ZM75.1971 21.0382C74.9128 21.0382 74.7706 20.934 74.7706 20.7255C74.7706 20.5549 74.8938 20.4412 75.1402 20.3843L75.4814 20.3275C75.8794 20.2516 76.1353 20.1379 76.249 19.9863C76.3817 19.8157 76.448 19.5314 76.448 19.1334V9.58092C76.448 9.23976 76.3911 9.01232 76.2774 8.8986C76.1827 8.76592 76.0026 8.68063 75.7373 8.64273L75.1402 8.55744C74.8938 8.53848 74.7706 8.43424 74.7706 8.24471C74.7706 8.09308 74.9223 7.98884 75.2255 7.93198C75.8131 7.83721 76.2585 7.68558 76.5617 7.4771C76.8839 7.26861 77.2156 7.01274 77.5568 6.70949C77.7274 6.53891 77.8695 6.45362 77.9832 6.45362C78.1538 6.45362 78.2391 6.56734 78.2391 6.79478V8.07413C78.2391 8.24471 78.296 8.35843 78.4097 8.41529C78.5423 8.45319 78.6845 8.39633 78.8361 8.24471C79.5943 7.52448 80.2576 7.03169 80.8262 6.76635C81.4138 6.501 82.0298 6.36833 82.6742 6.36833C83.5271 6.36833 84.2094 6.67158 84.7211 7.27809C85.2329 7.86564 85.4887 8.73749 85.4887 9.89365V19.1334C85.4887 19.5314 85.5456 19.8157 85.6593 19.9863C85.792 20.1379 86.0573 20.2422 86.4554 20.299L87.0808 20.3843C87.2893 20.4222 87.3936 20.5359 87.3936 20.7255C87.3936 20.934 87.2798 21.0382 87.0524 21.0382H82.2762C82.0108 21.0382 81.8781 20.934 81.8781 20.7255C81.8781 20.5359 81.9824 20.4222 82.1909 20.3843L82.5889 20.3275C82.9869 20.2706 83.2428 20.1569 83.3565 19.9863C83.4892 19.8157 83.5555 19.5314 83.5555 19.1334V10.2064C83.5555 9.27766 83.3849 8.62377 83.0438 8.24471C82.7026 7.86564 82.2193 7.67611 81.5938 7.67611C80.9873 7.67611 80.4377 7.85616 79.9449 8.21628C79.4711 8.55744 79.092 9.02179 78.8077 9.60935C78.5234 10.1779 78.3812 10.8129 78.3812 11.5142V19.1334C78.3812 19.5314 78.4381 19.8157 78.5518 19.9863C78.6845 20.1569 78.9498 20.2611 79.3479 20.299L80.1155 20.3843C80.324 20.4222 80.4282 20.5265 80.4282 20.697C80.4282 20.9245 80.2861 21.0382 80.0018 21.0382H75.1971Z" fill="#E0F2D0"/>
</svg>
